# xmcd
#
# Track frame offsets:
#	150
#	8587
#	18183
#	28141
#	37843
#	49102
#	63433
#	71355
#	82216
#	89839
#
# Disc length: 1302 seconds
#
# Revision: 2
# Processed by: cddbd v1.5.2PL0 Copyright (c) Steve Scherf et al.
# Submitted via: EZCDAudioConverter 2.1.3.1
#
DISCID=7905140a
DTITLE=Bill Monroe and James Monroe - Blue Grass Special Memories
DYEAR=1999
DGENRE=Bluegrass
TTITLE0=Bringing In The Georgia Mail
TTITLE1=Down Memory Lane
TTITLE2=I'm Coming Back But I Don't Know When
TTITLE3=Nine Pound Hammer
TTITLE4=Live And Let Live
TTITLE5=I Haven't Seen Mary In Years
TTITLE6=Bonny
TTITLE7=When The Bees Ar Ein The Hive
TTITLE8=Roll In Sweet Baby's Arms
TTITLE9=When The Angels Carry Me Home
EXTD=
EXTT0=
EXTT1=
EXTT2=
EXTT3=
EXTT4=
EXTT5=
EXTT6=
EXTT7=
EXTT8=
EXTT9=
PLAYORDER=
